<?xml version="1.0" standalone="no"?>
<!DOCTYPE svg PUBLIC "-//W3C//DTD SVG 20010904//EN"
 "http://www.w3.org/TR/2001/REC-SVG-20010904/DTD/svg10.dtd">
<svg version="1.0" xmlns="http://www.w3.org/2000/svg"
 width="260.000000pt" height="260.000000pt" viewBox="0 0 260.000000 260.000000"
 preserveAspectRatio="xMidYMid meet">
<metadata>
Created by potrace 1.11, written by Peter Selinger 2001-2013
</metadata>
<g transform="translate(0.000000,260.000000) scale(0.100000,-0.100000)"
fill="#000000" stroke="none">
<path d="M640 2063 c-151 -24 -214 -37 -297 -64 -117 -37 -315 -118 -325 -133
-4 -6 -8 -23 -8 -38 0 -22 15 -38 83 -89 270 -204 417 -343 527 -498 l65 -91
175 5 c96 3 170 2 165 -3 -6 -4 -39 -33 -75 -63 -36 -30 -70 -58 -76 -64 -6
-5 -25 -22 -43 -38 -35 -30 -36 -39 -17 -118 14 -60 13 -149 -3 -177 -9 -15
-41 -17 -343 -19 -183 0 -340 -2 -348 -2 -12 -1 -16 -13 -16 -51 l0 -50 1226
0 1225 0 1 50 c0 41 -3 50 -19 52 -15 2 -27 30 -61 143 -112 373 -219 569
-416 765 -131 131 -257 221 -425 304 -174 86 -312 129 -545 171 -40 8 -412 14
-450 8z m349 -107 c149 -13 374 -63 433 -96 10 -6 23 -10 29 -10 6 0 66 -27
133 -60 280 -140 487 -332 624 -581 34 -61 96 -208 119 -279 44 -139 73 -236
73 -246 0 -7 -223 -10 -740 -10 l-741 0 7 30 c9 42 7 144 -5 182 -9 31 -7 33
88 112 53 45 110 93 126 107 17 15 52 45 79 68 27 23 54 47 60 52 6 6 25 21
41 34 l30 23 -140 -6 c-77 -3 -212 -9 -301 -12 l-160 -5 -59 78 c-79 106 -234
258 -387 378 -69 55 -125 102 -122 106 5 9 182 73 254 92 93 25 136 32 255 42
44 4 81 8 82 9 4 3 144 -2 222 -8z"/>
</g>
</svg>
